<svg xmlns="http://www.w3.org/2000/svg" width="1000" height="680" viewBox="0 0 1000 680" role="img" aria-labelledby="title desc">
  <title id="title">Maine RCV participation trend</title>
  <desc id="desc">Two line charts showing candidates per extracted contest and voter turnout or turnout proxy across Maine election events from 2012 to 2026.</desc>
  <rect width="1000" height="680" fill="#ffffff"/>
  <text x="80" y="38" font-family="Arial, sans-serif" font-size="22" font-weight="700" fill="#1f2937">Maine Election Participation Trend</text>
  <text x="80" y="62" font-family="Arial, sans-serif" font-size="13" fill="#4b5563">Candidate intensity is normalized as candidates per extracted contest. Turnout uses event turnout or the labeled party-primary proxy.</text>

  <line x1="80" y1="300" x2="930" y2="300" stroke="#d1d5db" stroke-width="1"/>
  <line x1="80" y1="256" x2="930" y2="256" stroke="#e5e7eb" stroke-width="1"/>
  <line x1="80" y1="212" x2="930" y2="212" stroke="#e5e7eb" stroke-width="1"/>
  <line x1="80" y1="168" x2="930" y2="168" stroke="#e5e7eb" stroke-width="1"/>
  <line x1="80" y1="124" x2="930" y2="124" stroke="#e5e7eb" stroke-width="1"/>
  <line x1="80" y1="80" x2="930" y2="80" stroke="#e5e7eb" stroke-width="1"/>
  <line x1="80" y1="80" x2="80" y2="300" stroke="#d1d5db" stroke-width="1"/>
  <text x="80" y="102" font-family="Arial, sans-serif" font-size="15" font-weight="700" fill="#111827">Candidates per extracted contest</text>
  <text x="52" y="304" font-family="Arial, sans-serif" font-size="11" fill="#6b7280">0</text>
  <text x="52" y="260" font-family="Arial, sans-serif" font-size="11" fill="#6b7280">1</text>
  <text x="52" y="216" font-family="Arial, sans-serif" font-size="11" fill="#6b7280">2</text>
  <text x="52" y="172" font-family="Arial, sans-serif" font-size="11" fill="#6b7280">3</text>
  <text x="52" y="128" font-family="Arial, sans-serif" font-size="11" fill="#6b7280">4</text>
  <text x="52" y="84" font-family="Arial, sans-serif" font-size="11" fill="#6b7280">5</text>
  <polyline fill="none" stroke="#2563eb" stroke-width="3" points="80.0,175.5 150.8,245.0 221.7,245.0 292.5,184.3 363.3,124.0 434.2,226.5 505.0,80.0 575.8,237.1 646.7,124.0 717.5,146.0 788.3,241.5 859.2,146.0 930.0,154.8"/>
  <g fill="#2563eb">
    <circle cx="80.0" cy="175.5" r="4"/><circle cx="150.8" cy="245.0" r="4"/><circle cx="221.7" cy="245.0" r="4"/><circle cx="292.5" cy="184.3" r="4"/><circle cx="363.3" cy="124.0" r="4"/><circle cx="434.2" cy="226.5" r="4"/><circle cx="505.0" cy="80.0" r="4"/><circle cx="575.8" cy="237.1" r="4"/><circle cx="646.7" cy="124.0" r="4"/><circle cx="717.5" cy="146.0" r="4"/><circle cx="788.3" cy="241.5" r="4"/><circle cx="859.2" cy="146.0" r="4"/><circle cx="930.0" cy="154.8" r="4"/>
  </g>

  <line x1="80" y1="610" x2="930" y2="610" stroke="#d1d5db" stroke-width="1"/>
  <line x1="80" y1="561.1" x2="930" y2="561.1" stroke="#e5e7eb" stroke-width="1"/>
  <line x1="80" y1="512.2" x2="930" y2="512.2" stroke="#e5e7eb" stroke-width="1"/>
  <line x1="80" y1="463.3" x2="930" y2="463.3" stroke="#e5e7eb" stroke-width="1"/>
  <line x1="80" y1="414.4" x2="930" y2="414.4" stroke="#e5e7eb" stroke-width="1"/>
  <line x1="80" y1="390" x2="930" y2="390" stroke="#e5e7eb" stroke-width="1"/>
  <line x1="80" y1="390" x2="80" y2="610" stroke="#d1d5db" stroke-width="1"/>
  <text x="80" y="377" font-family="Arial, sans-serif" font-size="15" font-weight="700" fill="#111827">Voter turnout or turnout proxy</text>
  <text x="31" y="614" font-family="Arial, sans-serif" font-size="11" fill="#6b7280">0</text>
  <text x="24" y="565" font-family="Arial, sans-serif" font-size="11" fill="#6b7280">200k</text>
  <text x="24" y="516" font-family="Arial, sans-serif" font-size="11" fill="#6b7280">400k</text>
  <text x="24" y="467" font-family="Arial, sans-serif" font-size="11" fill="#6b7280">600k</text>
  <text x="24" y="418" font-family="Arial, sans-serif" font-size="11" fill="#6b7280">800k</text>
  <polyline fill="none" stroke="#dc2626" stroke-width="3" points="80.0,577.3 150.8,578.9 221.7,585.9 292.5,552.7 363.3,537.6 434.2,543.4 505.0,407.5 575.8,575.8 646.7,531.1 717.5,565.4 788.3,573.5 859.2,404.1 930.0,521.9"/>
  <g fill="#dc2626">
    <circle cx="80.0" cy="577.3" r="4"/><circle cx="150.8" cy="578.9" r="4"/><circle cx="221.7" cy="585.9" r="4"/><circle cx="292.5" cy="552.7" r="4"/><circle cx="363.3" cy="537.6" r="4"/><circle cx="434.2" cy="543.4" r="4"/><circle cx="505.0" cy="407.5" r="4"/><circle cx="575.8" cy="575.8" r="4"/><circle cx="646.7" cy="531.1" r="4"/><circle cx="717.5" cy="565.4" r="4"/><circle cx="788.3" cy="573.5" r="4"/><circle cx="859.2" cy="404.1" r="4"/><circle cx="930.0" cy="521.9" r="4"/>
  </g>

  <g font-family="Arial, sans-serif" font-size="10" fill="#374151">
    <text x="80.0" y="632" text-anchor="middle">2012 P</text>
    <text x="150.8" y="632" text-anchor="middle">2014 P</text>
    <text x="221.7" y="632" text-anchor="middle">2016 P</text>
    <text x="292.5" y="632" text-anchor="middle">2018 P</text>
    <text x="363.3" y="632" text-anchor="middle">2018 G</text>
    <text x="434.2" y="632" text-anchor="middle">2020 P</text>
    <text x="505.0" y="632" text-anchor="middle">2020 G</text>
    <text x="575.8" y="632" text-anchor="middle">2022 P</text>
    <text x="646.7" y="632" text-anchor="middle">2022 G</text>
    <text x="717.5" y="632" text-anchor="middle">2024 Pres P</text>
    <text x="788.3" y="632" text-anchor="middle">2024 P</text>
    <text x="859.2" y="632" text-anchor="middle">2024 G</text>
    <text x="930.0" y="632" text-anchor="middle">2026 P</text>
  </g>
  <rect x="80" y="646" width="12" height="3" fill="#2563eb"/><text x="100" y="651" font-family="Arial, sans-serif" font-size="11" fill="#374151">Candidates per contest</text>
  <rect x="240" y="646" width="12" height="3" fill="#dc2626"/><text x="260" y="651" font-family="Arial, sans-serif" font-size="11" fill="#374151">Turnout / proxy</text>
</svg>
